<?xml version="1.0" encoding="utf-8"?>
<!-- Generator: Adobe Illustrator 16.0.0, SVG Export Plug-In . SVG Version: 6.00 Build 0)  -->
<!DOCTYPE svg PUBLIC "-//W3C//DTD SVG 1.1//EN" "http://www.w3.org/Graphics/SVG/1.1/DTD/svg11.dtd">
<svg version="1.1" id="Capa_1" xmlns="http://www.w3.org/2000/svg" xmlns:xlink="http://www.w3.org/1999/xlink" x="0px" y="0px"
	 width="113.39px" height="75.4px" viewBox="0 0 113.39 75.4" enable-background="new 0 0 113.39 75.4" xml:space="preserve">
<g>
	<path fill="#FFFFFF" d="M22.982,3.728c-0.378-0.135-0.797-0.018-1.049,0.291L0.198,30.536c-0.139,0.168-0.214,0.38-0.214,0.598
		v43.02c0,0.521,0.423,0.945,0.945,0.945h6.595V37.262h11.718v37.837h3.422c0.522,0,0.945-0.424,0.945-0.945V4.618
		C23.609,4.219,23.358,3.862,22.982,3.728z"/>
	<path fill="#FFFFFF" d="M67.884,15.68L27.012,0c-0.289-0.111-0.616-0.073-0.874,0.103c-0.256,0.176-0.409,0.468-0.409,0.779v73.271
		c0,0.521,0.423,0.945,0.945,0.945h14.857L28.641,37.262h11.022l7.685,27.228l7.584-27.228h10.703L52.961,75.099h14.584
		c0.522,0,0.945-0.424,0.945-0.945V16.562C68.49,16.171,68.249,15.82,67.884,15.68z"/>
	<path fill="#FFFFFF" d="M112.767,32.924l-14.029-5.436V10.715c0-0.521-0.423-0.945-0.945-0.945H84.09
		c-0.522,0-0.945,0.424-0.945,0.945v10.631L72.129,17.32c-0.289-0.105-0.612-0.063-0.866,0.114
		c-0.253,0.177-0.403,0.466-0.403,0.773v55.945c0,0.521,0.423,0.945,0.945,0.945h19.55c-5.786-0.24-10.137-1.843-12.907-4.809
		c-2.984-3.18-4.5-7.968-4.5-14.229c0-2.174,0.211-4.421,0.628-6.679c0.441-2.41,1.384-4.627,2.803-6.586
		c1.437-1.986,3.464-3.618,6.028-4.854c2.569-1.238,5.814-1.841,9.925-1.841c3.612,0,6.484,0.429,8.78,1.312
		c2.296,0.894,4.121,2.018,5.434,3.345c1.358,1.389,2.273,2.883,2.723,4.447c0.41,1.427,0.617,2.731,0.617,3.875v1.946H99.328V49.08
		c0-0.63-0.102-1.232-0.308-1.841c-0.194-0.575-0.49-1.085-0.902-1.558c-0.38-0.438-0.936-0.809-1.651-1.102
		c-0.763-0.314-1.757-0.474-2.951-0.474c-1.005,0-2.01,0.126-2.99,0.376c-0.8,0.2-1.505,0.638-2.164,1.342
		c-0.702,0.751-1.292,1.9-1.75,3.414c-0.488,1.604-0.736,3.878-0.736,6.761c0,1.024,0.046,2.284,0.133,3.745
		c0.074,1.258,0.371,2.477,0.883,3.627c0.48,1.082,1.196,1.976,2.189,2.734c0.896,0.689,2.295,1.036,4.162,1.036
		c1.318,0,2.367-0.198,3.119-0.591c0.775-0.402,1.363-0.884,1.803-1.466c0.44-0.588,0.732-1.22,0.892-1.935
		c0.179-0.826,0.272-1.644,0.272-2.419v-1.945h11.557v1.945c0,1.566-0.298,3.192-0.887,4.838c-0.613,1.719-1.66,3.316-3.109,4.747
		c-1.433,1.408-3.328,2.578-5.637,3.48c-1.96,0.768-4.329,1.19-7.015,1.302h18.188c0.522,0,0.945-0.424,0.945-0.945V33.807
		C113.37,33.415,113.13,33.066,112.767,32.924z"/>
	<path fill="#FFFFFF" d="M92.876,75.147c0.47,0,0.91-0.03,1.361-0.049h-2.883C91.857,75.12,92.353,75.147,92.876,75.147z"/>
</g>
</svg>
