<?xml version="1.0" encoding="utf-8"?>
<!-- Generator: Adobe Illustrator 16.0.0, SVG Export Plug-In . SVG Version: 6.00 Build 0)  -->
<!DOCTYPE svg PUBLIC "-//W3C//DTD SVG 1.1//EN" "http://www.w3.org/Graphics/SVG/1.1/DTD/svg11.dtd">
<svg version="1.1" id="Capa_1" xmlns="http://www.w3.org/2000/svg" xmlns:xlink="http://www.w3.org/1999/xlink" x="0px" y="0px"
	 width="113.39px" height="28.35px" viewBox="0 0 113.39 28.35" enable-background="new 0 0 113.39 28.35" xml:space="preserve">
<g>
	<polygon fill="#FFFFFF" points="23.634,4.001 23.938,4.001 23.938,3.268 15.8,3.268 15.8,4.001 16.402,4.001 12.117,17.983 
		7.784,4.001 8.133,4.001 8.133,3.268 -0.005,3.268 -0.005,4.001 0.567,4.001 0.567,23.765 -0.005,23.765 -0.005,24.499 
		0.567,24.499 5.047,24.499 5.46,24.499 5.46,23.765 5.047,23.765 5.047,8.363 9.771,24.499 14.414,24.499 19.155,8.363 
		19.155,23.765 18.63,23.765 18.63,24.499 19.155,24.499 23.634,24.499 24.095,24.499 24.095,23.765 23.634,23.765 	"/>
	<polygon fill="#FFFFFF" points="112.92,23.765 112.92,4.001 113.224,4.001 113.224,3.268 105.085,3.268 105.085,4.001 
		105.687,4.001 101.402,17.983 97.069,4.001 97.419,4.001 97.419,3.268 89.28,3.268 89.28,4.001 89.853,4.001 89.853,23.765 
		89.279,23.765 89.279,24.499 89.853,24.499 94.333,24.499 94.745,24.499 94.745,23.765 94.333,23.765 94.333,8.363 99.057,24.499 
		103.699,24.499 108.44,8.363 108.44,23.765 107.915,23.765 107.915,24.499 108.44,24.499 112.92,24.499 113.381,24.499 
		113.381,23.765 	"/>
	<path fill="#FFFFFF" d="M43.713,3.827h0.609v11.165c0,1.621-0.079,2.781-0.237,3.481c-0.159,0.698-0.628,1.288-1.406,1.769
		c-0.779,0.479-1.936,0.72-3.469,0.72c-1.51,0-2.7-0.253-3.571-0.762c-0.87-0.509-1.421-1.182-1.653-2.021
		c-0.134-0.521-0.201-1.664-0.201-3.425V3.827h0.492V3.093h-6.546v0.733h0.648v10.759c0,2.292,0.177,4.027,0.53,5.201
		c0.243,0.793,0.749,1.55,1.516,2.272c0.767,0.723,1.81,1.311,3.132,1.762c1.321,0.451,3.259,0.679,5.816,0.679
		c2.118,0,3.835-0.209,5.149-0.623c1.315-0.415,2.365-0.972,3.15-1.67c0.785-0.7,1.324-1.558,1.616-2.572
		c0.292-1.017,0.438-2.756,0.438-5.216V3.827h0.531V3.093h-6.546V3.827z"/>
	<path fill="#FFFFFF" d="M70.329,3.408c-0.992-0.21-3.117-0.315-6.378-0.315h-1.87h-6.735h-0.664v0.752h0.664v19.902h-0.664v0.752
		h6.896v-0.752h-0.869V16.19h3.496c2.428,0,4.28-0.101,5.562-0.302c0.941-0.162,1.869-0.495,2.781-0.997
		c0.911-0.501,1.663-1.192,2.256-2.072c0.591-0.88,0.887-1.966,0.887-3.257c0-1.674-0.513-3.039-1.539-4.096
		C73.124,4.411,71.849,3.725,70.329,3.408z M69.559,11.255c-0.405,0.468-0.964,0.813-1.677,1.033c-0.712,0.22-2.125,0.33-4.239,0.33
		h-2.934V6.65H63.3c1.932,0,3.218,0.049,3.858,0.144c0.869,0.125,1.588,0.435,2.155,0.932s0.853,1.129,0.853,1.894
		C70.166,10.242,69.962,10.787,69.559,11.255z"/>
	<polygon fill="#FFFFFF" points="77.62,4.191 78.354,4.191 78.354,23.765 77.62,23.765 77.62,24.499 78.354,24.499 83.214,24.499 
		83.948,24.499 83.948,23.765 83.214,23.765 83.214,4.191 83.948,4.191 83.948,3.459 77.62,3.459 	"/>
</g>
</svg>
