<?xml version="1.0" encoding="utf-8"?>
<!-- Generator: Adobe Illustrator 16.0.0, SVG Export Plug-In . SVG Version: 6.00 Build 0)  -->
<!DOCTYPE svg PUBLIC "-//W3C//DTD SVG 1.1//EN" "http://www.w3.org/Graphics/SVG/1.1/DTD/svg11.dtd">
<svg version="1.1" id="Capa_1" xmlns="http://www.w3.org/2000/svg" xmlns:xlink="http://www.w3.org/1999/xlink" x="0px" y="0px"
	 width="260.79px" height="119.06px" viewBox="0 0 260.79 119.06" enable-background="new 0 0 260.79 119.06" xml:space="preserve">
<g>
	<g>
		<path fill="#FFFFFF" stroke="#FFFFFF" stroke-width="0.5" stroke-miterlimit="10" d="M121.304,38.838h1.48
			c0.07,0,0.138-0.032,0.2-0.095c0.063-0.063,0.096-0.137,0.096-0.222l0.613-9.874l3.911,9.79c0.07,0.184,0.177,0.296,0.317,0.338
			s0.353,0.063,0.635,0.063c0.31,0,0.528-0.021,0.655-0.063s0.226-0.155,0.296-0.338l3.869-9.79l0.635,9.874
			c0.014,0.085,0.053,0.159,0.116,0.222s0.13,0.095,0.2,0.095h1.459c0.085,0,0.155-0.028,0.212-0.084
			c0.056-0.056,0.084-0.12,0.084-0.19v-0.042l-1.226-14.208c-0.015-0.084-0.046-0.151-0.096-0.201s-0.116-0.074-0.2-0.074h-1.058
			c-0.226,0.028-0.388,0.162-0.486,0.402l-4.461,11.46l-4.462-11.46c-0.07-0.155-0.141-0.257-0.211-0.307
			c-0.071-0.049-0.162-0.081-0.275-0.095h-1.057c-0.085,0-0.152,0.025-0.201,0.074c-0.05,0.049-0.081,0.116-0.095,0.201
			l-1.227,14.208c-0.015,0.085,0.007,0.159,0.063,0.222C121.148,38.807,121.22,38.838,121.304,38.838z"/>
		<path fill="#FFFFFF" stroke="#FFFFFF" stroke-width="0.5" stroke-miterlimit="10" d="M139.181,37.538
			c0.303,0.458,0.694,0.803,1.174,1.036c0.479,0.232,0.994,0.349,1.543,0.349c0.551,0,1.064-0.12,1.544-0.359
			c0.479-0.239,0.839-0.585,1.078-1.036l-0.063,0.931c-0.014,0.099,0.011,0.176,0.074,0.232c0.063,0.057,0.145,0.084,0.243,0.084
			h1.058c0.084,0,0.165-0.032,0.242-0.095c0.078-0.063,0.117-0.137,0.117-0.222V31.29c0-0.099-0.039-0.183-0.117-0.254
			c-0.077-0.07-0.158-0.105-0.242-0.105h-1.037c-0.324,0-0.486,0.134-0.486,0.402l0.043,3.552c0,0.522-0.1,0.973-0.297,1.354
			c-0.197,0.38-0.457,0.673-0.781,0.877c-0.324,0.205-0.663,0.307-1.016,0.307c-0.465,0-0.863-0.183-1.194-0.55
			c-0.331-0.366-0.497-0.902-0.497-1.607v-3.954c0-0.098-0.039-0.187-0.116-0.264c-0.077-0.077-0.158-0.116-0.243-0.116h-1.057
			c-0.127,0-0.232,0.032-0.317,0.095s-0.127,0.158-0.127,0.285l0.021,4.546C138.726,36.52,138.878,37.08,139.181,37.538z"/>
		<path fill="#FFFFFF" stroke="#FFFFFF" stroke-width="0.5" stroke-miterlimit="10" d="M153.823,30.931h-1.713v-3.912
			c0-0.113-0.031-0.201-0.095-0.264s-0.151-0.095-0.265-0.095h-1.162c-0.1,0-0.184,0.032-0.254,0.095
			c-0.071,0.063-0.106,0.151-0.106,0.264v3.912h-1.311c-0.085,0-0.159,0.032-0.222,0.095c-0.064,0.063-0.096,0.137-0.096,0.222
			v0.846c0,0.099,0.031,0.18,0.096,0.243c0.063,0.063,0.137,0.095,0.222,0.095h1.311v3.341c0,1.156,0.239,1.959,0.72,2.411
			c0.479,0.451,1.063,0.676,1.754,0.676c0.324,0,0.613-0.035,0.867-0.105c0.141-0.028,0.229-0.081,0.265-0.159
			c0.034-0.077,0.053-0.187,0.053-0.328c0.014-0.409-0.007-0.673-0.063-0.793c-0.057-0.12-0.17-0.166-0.338-0.137
			c-0.311,0-0.558-0.021-0.74-0.063c-0.184-0.042-0.353-0.194-0.508-0.455s-0.232-0.673-0.232-1.237v-3.15h1.818
			c0.084,0,0.158-0.035,0.223-0.105c0.063-0.07,0.094-0.148,0.094-0.232v-0.846c0-0.084-0.031-0.158-0.094-0.222
			C153.981,30.962,153.907,30.931,153.823,30.931z"/>
		<path fill="#FFFFFF" stroke="#FFFFFF" stroke-width="0.5" stroke-miterlimit="10" d="M157.132,37.538
			c0.303,0.458,0.694,0.803,1.174,1.036c0.479,0.232,0.994,0.349,1.543,0.349c0.551,0,1.064-0.12,1.544-0.359
			c0.479-0.239,0.839-0.585,1.078-1.036l-0.063,0.931c-0.014,0.099,0.011,0.176,0.074,0.232c0.063,0.057,0.145,0.084,0.243,0.084
			h1.058c0.084,0,0.165-0.032,0.242-0.095c0.078-0.063,0.117-0.137,0.117-0.222V31.29c0-0.099-0.039-0.183-0.117-0.254
			c-0.077-0.07-0.158-0.105-0.242-0.105h-1.037c-0.324,0-0.486,0.134-0.486,0.402l0.043,3.552c0,0.522-0.1,0.973-0.297,1.354
			c-0.197,0.38-0.457,0.673-0.781,0.877c-0.324,0.205-0.663,0.307-1.016,0.307c-0.465,0-0.863-0.183-1.194-0.55
			c-0.331-0.366-0.497-0.902-0.497-1.607v-3.954c0-0.098-0.039-0.187-0.116-0.264c-0.077-0.077-0.158-0.116-0.243-0.116h-1.057
			c-0.127,0-0.232,0.032-0.317,0.095s-0.127,0.158-0.127,0.285l0.021,4.546C156.677,36.52,156.829,37.08,157.132,37.538z"/>
		<path fill="#FFFFFF" stroke="#FFFFFF" stroke-width="0.5" stroke-miterlimit="10" d="M169.057,38.299
			c0.585,0.374,1.229,0.567,1.935,0.582c0.521,0,1.025-0.12,1.512-0.36c0.486-0.239,0.898-0.549,1.237-0.93l-0.021,0.93
			c0,0.169,0.084,0.254,0.253,0.254h1.206c0.196,0,0.295-0.084,0.295-0.254V31.1c0-0.042-0.021-0.081-0.063-0.116
			c-0.043-0.035-0.078-0.053-0.106-0.053h-1.374c-0.057,0-0.103,0.018-0.138,0.053c-0.035,0.036-0.053,0.074-0.053,0.116
			l0.042,1.163c-0.254-0.423-0.627-0.768-1.12-1.036c-0.493-0.268-1.05-0.402-1.671-0.402c-0.705,0.014-1.35,0.198-1.935,0.55
			c-0.585,0.353-1.05,0.828-1.396,1.427s-0.518,1.258-0.518,1.977s0.172,1.392,0.518,2.019
			C168.007,37.425,168.472,37.926,169.057,38.299z M169.585,33.151c0.459-0.451,1.012-0.677,1.66-0.677
			c0.662,0,1.227,0.226,1.691,0.677s0.697,1.001,0.697,1.649c0,0.423-0.105,0.821-0.316,1.195s-0.5,0.673-0.867,0.898
			c-0.366,0.226-0.768,0.338-1.205,0.338c-0.423,0-0.814-0.113-1.174-0.338c-0.359-0.225-0.645-0.525-0.855-0.898
			c-0.212-0.374-0.317-0.772-0.317-1.195C168.898,34.152,169.128,33.602,169.585,33.151z"/>
		<path fill="#FFFFFF" stroke="#FFFFFF" stroke-width="0.5" stroke-miterlimit="10" d="M179.364,38.775h1.184
			c0.085,0,0.162-0.042,0.232-0.127c0.071-0.084,0.106-0.176,0.106-0.275V24.355c0-0.099-0.039-0.187-0.116-0.264
			c-0.078-0.078-0.166-0.117-0.264-0.117h-1.143c-0.099,0-0.188,0.039-0.264,0.117c-0.078,0.078-0.117,0.166-0.117,0.264v14.04
			c0,0.099,0.039,0.187,0.117,0.264C179.177,38.736,179.266,38.775,179.364,38.775z"/>
		<path fill="#FFFFFF" stroke="#FFFFFF" stroke-width="0.5" stroke-miterlimit="10" d="M189.64,38.838h8.119
			c0.099,0,0.176-0.032,0.232-0.095s0.085-0.137,0.085-0.222v-1.269c0-0.084-0.039-0.158-0.116-0.222
			c-0.078-0.063-0.158-0.095-0.243-0.095h-6.407V32.39h5.582c0.085,0,0.159-0.028,0.223-0.084s0.096-0.134,0.096-0.233V30.91
			c0-0.085-0.032-0.155-0.096-0.211s-0.138-0.085-0.223-0.085h-5.582V25.94h6.449c0.085,0,0.158-0.031,0.223-0.095
			c0.063-0.063,0.095-0.138,0.095-0.222v-1.269c0-0.084-0.032-0.159-0.095-0.222c-0.064-0.063-0.138-0.095-0.223-0.095h-8.119
			c-0.099,0-0.18,0.032-0.243,0.095s-0.095,0.138-0.095,0.222v14.166c0,0.085,0.031,0.159,0.095,0.222S189.541,38.838,189.64,38.838
			z"/>
		<path fill="#FFFFFF" stroke="#FFFFFF" stroke-width="0.5" stroke-miterlimit="10" d="M201.544,38.775h1.015
			c0.324,0,0.486-0.134,0.486-0.402l-0.021-3.552c0-0.494,0.102-0.931,0.307-1.311c0.203-0.381,0.472-0.669,0.803-0.867
			c0.331-0.197,0.673-0.296,1.025-0.296c0.465,0,0.856,0.176,1.174,0.529c0.316,0.353,0.476,0.867,0.476,1.543v3.975
			c0,0.099,0.035,0.187,0.105,0.264c0.071,0.078,0.148,0.116,0.233,0.116h1.078c0.127,0,0.232-0.032,0.316-0.095
			c0.085-0.063,0.127-0.159,0.127-0.285l-0.021-4.546c-0.014-0.973-0.33-1.727-0.951-2.263c-0.62-0.536-1.354-0.803-2.199-0.803
			c-0.549,0-1.064,0.12-1.543,0.359c-0.479,0.24-0.846,0.578-1.1,1.015l0.063-0.909c0-0.098-0.028-0.176-0.085-0.232
			c-0.057-0.056-0.134-0.084-0.232-0.084h-1.057c-0.1,0-0.184,0.028-0.254,0.084c-0.07,0.057-0.105,0.134-0.105,0.232v7.168
			c0,0.099,0.035,0.183,0.105,0.254C201.36,38.74,201.444,38.775,201.544,38.775z"/>
		<path fill="#FFFFFF" stroke="#FFFFFF" stroke-width="0.5" stroke-miterlimit="10" d="M210.868,32.432h1.311v3.341
			c0,1.156,0.24,1.959,0.719,2.411c0.479,0.451,1.064,0.676,1.756,0.676c0.324,0,0.613-0.035,0.866-0.105
			c0.141-0.028,0.229-0.081,0.265-0.159c0.035-0.077,0.053-0.187,0.053-0.328c0.014-0.409-0.008-0.673-0.063-0.793
			c-0.057-0.12-0.169-0.166-0.339-0.137c-0.31,0-0.557-0.021-0.74-0.063c-0.183-0.042-0.352-0.194-0.507-0.455
			s-0.232-0.673-0.232-1.237v-3.15h1.818c0.085,0,0.159-0.035,0.222-0.105c0.063-0.07,0.096-0.148,0.096-0.232v-0.846
			c0-0.084-0.032-0.158-0.096-0.222c-0.063-0.063-0.137-0.095-0.222-0.095h-1.713v-3.912c0-0.113-0.032-0.201-0.095-0.264
			c-0.063-0.063-0.152-0.095-0.265-0.095h-1.163c-0.099,0-0.184,0.032-0.254,0.095s-0.105,0.151-0.105,0.264v3.912h-1.311
			c-0.085,0-0.158,0.032-0.223,0.095c-0.063,0.063-0.095,0.137-0.095,0.222v0.846c0,0.099,0.032,0.18,0.095,0.243
			C210.71,32.4,210.783,32.432,210.868,32.432z"/>
		<path fill="#FFFFFF" stroke="#FFFFFF" stroke-width="0.5" stroke-miterlimit="10" d="M218.817,38.775h0.994
			c0.296,0,0.444-0.127,0.444-0.38v-4.652c0.042-0.254,0.19-0.521,0.444-0.803c0.254-0.282,0.592-0.423,1.014-0.423
			c0.17,0,0.328,0.01,0.477,0.032c0.148,0.021,0.257,0.031,0.328,0.031c0.127,0,0.225-0.063,0.295-0.19s0.191-0.451,0.359-0.973
			c0.029-0.084,0.043-0.155,0.043-0.211c0-0.141-0.084-0.233-0.254-0.275c-0.24-0.07-0.465-0.106-0.676-0.106
			c-0.41,0-0.808,0.106-1.195,0.317s-0.709,0.521-0.962,0.93l0.063-0.782c0.014-0.099-0.014-0.183-0.085-0.254
			c-0.07-0.07-0.155-0.105-0.253-0.105h-1.037c-0.098,0-0.18,0.035-0.242,0.105c-0.064,0.071-0.096,0.155-0.096,0.254v7.125
			c0,0.099,0.031,0.183,0.096,0.254C218.638,38.74,218.72,38.775,218.817,38.775z"/>
		<path fill="#FFFFFF" stroke="#FFFFFF" stroke-width="0.5" stroke-miterlimit="10" d="M227.275,38.711
			c0.45,0.113,0.853,0.169,1.205,0.169c0.662,0,1.243-0.124,1.744-0.37s0.892-0.511,1.174-0.793
			c0.056-0.056,0.085-0.113,0.085-0.169c0-0.042-0.029-0.12-0.085-0.233c-0.24-0.38-0.423-0.641-0.55-0.782
			c-0.043-0.07-0.12-0.105-0.232-0.105c-0.085,0-0.148,0.021-0.19,0.063l-0.317,0.254c-0.24,0.198-0.518,0.349-0.835,0.455
			c-0.317,0.106-0.61,0.159-0.878,0.159c-0.578,0-1.061-0.18-1.448-0.539c-0.388-0.36-0.596-0.758-0.624-1.195h5.371
			c0.07,0,0.13-0.024,0.18-0.074c0.049-0.049,0.081-0.109,0.096-0.18c0.07-0.846-0.039-1.61-0.328-2.294
			c-0.289-0.684-0.723-1.226-1.301-1.628s-1.269-0.603-2.072-0.603c-0.311,0-0.6,0.028-0.867,0.084
			c-0.732,0.127-1.35,0.451-1.85,0.973s-0.835,1.156-1.004,1.903c-0.085,0.353-0.127,0.705-0.127,1.057
			c0,0.917,0.257,1.73,0.771,2.442S226.401,38.486,227.275,38.711z M226.927,32.854c0.387-0.366,0.863-0.549,1.427-0.549
			c0.521,0,0.969,0.166,1.343,0.497c0.373,0.332,0.616,0.779,0.729,1.343l-4.145,0.021
			C226.323,33.658,226.538,33.221,226.927,32.854z"/>
		<path fill="#FFFFFF" stroke="#FFFFFF" stroke-width="0.5" stroke-miterlimit="10" d="M122.679,57.648l1.564-4.017h6.11l1.48,4.039
			c0.042,0.126,0.134,0.19,0.274,0.19h1.544c0.07,0,0.137-0.024,0.2-0.074s0.096-0.109,0.096-0.18c0-0.056-0.008-0.099-0.021-0.127
			l-5.392-14.103c-0.028-0.099-0.088-0.176-0.18-0.232s-0.194-0.084-0.307-0.084h-1.438c-0.085,0-0.17,0.028-0.254,0.084
			c-0.085,0.056-0.142,0.134-0.169,0.232l-5.625,14.103c-0.042,0.113-0.031,0.201,0.032,0.264s0.138,0.095,0.222,0.095h1.586
			C122.544,57.838,122.636,57.775,122.679,57.648z M127.351,45.575l2.326,6.258h-4.757L127.351,45.575z"/>
		<path fill="#FFFFFF" stroke="#FFFFFF" stroke-width="0.5" stroke-miterlimit="10" d="M135.787,52.172
			c0,0.451,0.155,0.867,0.466,1.248c0.31,0.38,0.824,0.691,1.543,0.93c0.832,0.268,1.378,0.494,1.639,0.677s0.391,0.402,0.391,0.655
			c0,0.226-0.105,0.405-0.316,0.539c-0.211,0.134-0.465,0.201-0.762,0.201c-0.281,0-0.557-0.053-0.824-0.159
			c-0.268-0.106-0.486-0.271-0.655-0.497c-0.113-0.155-0.254-0.232-0.423-0.232c-0.127,0-0.275,0.042-0.444,0.127l-0.697,0.275
			c-0.099,0.042-0.148,0.12-0.148,0.232c0,0.141,0.077,0.31,0.232,0.507c0.353,0.395,0.79,0.695,1.312,0.899
			c0.521,0.205,1.057,0.307,1.606,0.307c0.774,0,1.444-0.187,2.009-0.561c0.563-0.373,0.867-0.884,0.909-1.533
			c0.042-0.719-0.169-1.279-0.634-1.681c-0.466-0.402-1.086-0.708-1.861-0.92c-0.578-0.169-0.994-0.324-1.248-0.465
			c-0.253-0.141-0.38-0.331-0.38-0.571c0-0.296,0.105-0.518,0.317-0.666c0.211-0.148,0.472-0.222,0.782-0.222
			c0.253,0,0.497,0.057,0.729,0.169c0.232,0.113,0.412,0.275,0.539,0.486c0.084,0.113,0.204,0.169,0.359,0.169
			c0.169,0,0.338-0.042,0.508-0.127l0.592-0.254c0.141-0.07,0.211-0.155,0.211-0.253c0-0.014-0.014-0.063-0.042-0.148
			c-0.254-0.479-0.642-0.846-1.163-1.1c-0.521-0.254-1.086-0.381-1.691-0.381c-0.762,0-1.371,0.163-1.828,0.486
			c-0.459,0.325-0.759,0.698-0.899,1.121C135.83,51.657,135.787,51.904,135.787,52.172z"/>
		<path fill="#FFFFFF" stroke="#FFFFFF" stroke-width="0.5" stroke-miterlimit="10" d="M144.445,51.823
			c-0.359,0.613-0.539,1.287-0.539,2.02s0.18,1.41,0.539,2.03c0.359,0.621,0.846,1.11,1.459,1.469c0.613,0.36,1.286,0.54,2.019,0.54
			c0.733,0,1.406-0.18,2.02-0.54c0.613-0.359,1.1-0.849,1.459-1.469c0.359-0.62,0.539-1.297,0.539-2.03s-0.18-1.406-0.539-2.02
			c-0.359-0.613-0.846-1.099-1.459-1.458c-0.613-0.36-1.286-0.54-2.02-0.54c-0.732,0-1.405,0.18-2.019,0.54
			C145.291,50.724,144.805,51.21,144.445,51.823z M147.882,51.495c0.309,0,0.645,0.084,1.004,0.254
			c0.359,0.169,0.662,0.43,0.908,0.782c0.247,0.353,0.371,0.79,0.371,1.311c0,0.648-0.223,1.202-0.666,1.66
			c-0.444,0.458-0.983,0.687-1.617,0.687c-0.621,0-1.15-0.229-1.586-0.687c-0.438-0.458-0.656-1.011-0.656-1.66
			c0-0.634,0.223-1.184,0.666-1.649C146.75,51.728,147.274,51.495,147.882,51.495z"/>
		<path fill="#FFFFFF" stroke="#FFFFFF" stroke-width="0.5" stroke-miterlimit="10" d="M157.501,57.817
			c0.24,0.042,0.466,0.063,0.678,0.063c0.93,0,1.762-0.289,2.494-0.867c0.043-0.042,0.063-0.098,0.063-0.169
			c0-0.056-0.015-0.099-0.042-0.127l-0.656-0.846c-0.056-0.07-0.127-0.106-0.211-0.106c-0.042,0-0.092,0.014-0.148,0.042
			c-0.465,0.282-0.923,0.423-1.374,0.423c-0.62,0-1.146-0.229-1.575-0.687s-0.645-1.011-0.645-1.66c0-0.705,0.204-1.29,0.613-1.755
			c0.408-0.465,0.938-0.698,1.586-0.698c0.437,0,0.831,0.113,1.184,0.338c0.07,0.028,0.141,0.036,0.211,0.021
			c0.07-0.014,0.113-0.049,0.127-0.105l0.571-0.952c0.07-0.126,0.05-0.232-0.063-0.317c-0.676-0.395-1.367-0.592-2.072-0.592
			c-0.422,0-0.811,0.057-1.162,0.169c-0.705,0.197-1.312,0.582-1.818,1.152c-0.508,0.571-0.825,1.223-0.952,1.956
			c-0.042,0.296-0.063,0.557-0.063,0.782c0,0.311,0.057,0.691,0.17,1.142c0.197,0.719,0.577,1.335,1.141,1.85
			C156.12,57.391,156.769,57.705,157.501,57.817z"/>
		<path fill="#FFFFFF" stroke="#FFFFFF" stroke-width="0.5" stroke-miterlimit="10" d="M164.774,49.931h-1.1
			c-0.113,0-0.208,0.035-0.285,0.105c-0.078,0.071-0.116,0.163-0.116,0.275v7.083c0,0.113,0.038,0.204,0.116,0.275
			c0.077,0.07,0.172,0.105,0.285,0.105h1.143c0.098,0,0.183-0.039,0.254-0.116c0.07-0.077,0.105-0.172,0.105-0.286v-7.062
			c0-0.112-0.039-0.204-0.117-0.275C164.982,49.966,164.888,49.931,164.774,49.931z"/>
		<path fill="#FFFFFF" stroke="#FFFFFF" stroke-width="0.5" stroke-miterlimit="10" d="M164.161,45.638
			c-0.324,0-0.603,0.12-0.835,0.36s-0.349,0.521-0.349,0.846c0,0.338,0.116,0.624,0.349,0.856c0.232,0.233,0.511,0.349,0.835,0.349
			c0.338,0,0.627-0.116,0.867-0.349c0.24-0.232,0.359-0.518,0.359-0.856c0-0.324-0.119-0.606-0.359-0.846
			S164.499,45.638,164.161,45.638z"/>
		<path fill="#FFFFFF" stroke="#FFFFFF" stroke-width="0.5" stroke-miterlimit="10" d="M174.49,49.983
			c-0.035,0.036-0.053,0.074-0.053,0.116l0.042,1.163c-0.254-0.423-0.627-0.768-1.12-1.036c-0.493-0.268-1.05-0.402-1.671-0.402
			c-0.705,0.014-1.35,0.198-1.935,0.55c-0.585,0.353-1.05,0.828-1.396,1.427s-0.518,1.258-0.518,1.977s0.172,1.392,0.518,2.019
			c0.346,0.627,0.811,1.128,1.396,1.501s1.229,0.567,1.935,0.582c0.521,0,1.025-0.12,1.512-0.36c0.486-0.239,0.898-0.549,1.237-0.93
			l-0.021,0.93c0,0.169,0.084,0.254,0.253,0.254h1.206c0.196,0,0.295-0.084,0.295-0.254V50.1c0-0.042-0.021-0.081-0.063-0.116
			c-0.043-0.035-0.078-0.053-0.106-0.053h-1.374C174.571,49.931,174.525,49.948,174.49,49.983z M174.015,54.995
			c-0.211,0.374-0.5,0.673-0.867,0.898c-0.366,0.226-0.768,0.338-1.205,0.338c-0.423,0-0.814-0.113-1.174-0.338
			c-0.359-0.225-0.645-0.525-0.855-0.898c-0.212-0.374-0.317-0.772-0.317-1.195c0-0.648,0.229-1.198,0.687-1.649
			c0.459-0.451,1.012-0.677,1.66-0.677c0.662,0,1.227,0.226,1.691,0.677s0.697,1.001,0.697,1.649
			C174.331,54.223,174.226,54.621,174.015,54.995z"/>
		<path fill="#FFFFFF" stroke="#FFFFFF" stroke-width="0.5" stroke-miterlimit="10" d="M184.491,57.521
			c0.5-0.239,0.92-0.549,1.258-0.93l-0.063,0.93c-0.015,0.071,0.007,0.131,0.063,0.18s0.127,0.074,0.211,0.074h1.185
			c0.085,0,0.155-0.024,0.212-0.074c0.056-0.049,0.084-0.109,0.084-0.18v-14.25c0-0.071-0.028-0.138-0.084-0.201
			c-0.057-0.063-0.127-0.095-0.212-0.095h-1.185c-0.07,0-0.134,0.032-0.189,0.095c-0.057,0.063-0.085,0.13-0.085,0.201l0.021,7.95
			c-0.268-0.38-0.641-0.708-1.12-0.983s-1.029-0.413-1.649-0.413c-0.705,0-1.354,0.18-1.945,0.54
			c-0.592,0.359-1.064,0.853-1.416,1.48c-0.354,0.627-0.529,1.321-0.529,2.083c0,0.719,0.176,1.378,0.529,1.977
			c0.352,0.599,0.824,1.075,1.416,1.427s1.24,0.536,1.945,0.55C183.472,57.881,183.99,57.761,184.491,57.521z M180.907,53.948
			c0-0.69,0.229-1.275,0.688-1.755c0.457-0.479,1.004-0.719,1.639-0.719c0.634,0,1.18,0.24,1.639,0.719
			c0.457,0.479,0.687,1.064,0.687,1.755c0,0.634-0.229,1.184-0.687,1.649c-0.459,0.465-1.005,0.698-1.639,0.698
			c-0.621,0-1.164-0.236-1.629-0.708C181.14,55.114,180.907,54.568,180.907,53.948z"/>
		<path fill="#FFFFFF" stroke="#FFFFFF" stroke-width="0.5" stroke-miterlimit="10" d="M196.015,50.364
			c-0.613-0.36-1.287-0.54-2.02-0.54s-1.406,0.18-2.02,0.54c-0.613,0.359-1.1,0.846-1.459,1.458
			c-0.359,0.613-0.539,1.287-0.539,2.02s0.18,1.41,0.539,2.03c0.359,0.621,0.846,1.11,1.459,1.469c0.613,0.36,1.287,0.54,2.02,0.54
			s1.406-0.18,2.02-0.54c0.613-0.359,1.1-0.849,1.459-1.469c0.359-0.62,0.539-1.297,0.539-2.03s-0.18-1.406-0.539-2.02
			C197.114,51.21,196.628,50.724,196.015,50.364z M195.57,55.502c-0.444,0.458-0.983,0.687-1.617,0.687
			c-0.62,0-1.149-0.229-1.586-0.687c-0.437-0.458-0.655-1.011-0.655-1.66c0-0.634,0.222-1.184,0.666-1.649
			c0.443-0.465,0.969-0.698,1.575-0.698c0.31,0,0.645,0.084,1.004,0.254c0.36,0.169,0.663,0.43,0.909,0.782
			c0.246,0.353,0.37,0.79,0.37,1.311C196.236,54.491,196.015,55.044,195.57,55.502z"/>
		<path fill="#FFFFFF" stroke="#FFFFFF" stroke-width="0.5" stroke-miterlimit="10" d="M201.628,57.574
			c0.521,0.205,1.057,0.307,1.606,0.307c0.774,0,1.444-0.187,2.009-0.561c0.563-0.373,0.867-0.884,0.909-1.533
			c0.042-0.719-0.169-1.279-0.634-1.681c-0.466-0.402-1.086-0.708-1.861-0.92c-0.578-0.169-0.994-0.324-1.248-0.465
			c-0.253-0.141-0.38-0.331-0.38-0.571c0-0.296,0.105-0.518,0.317-0.666c0.211-0.148,0.472-0.222,0.782-0.222
			c0.253,0,0.497,0.057,0.729,0.169c0.232,0.113,0.412,0.275,0.539,0.486c0.084,0.113,0.204,0.169,0.359,0.169
			c0.169,0,0.338-0.042,0.508-0.127l0.592-0.254c0.141-0.07,0.211-0.155,0.211-0.253c0-0.014-0.014-0.063-0.042-0.148
			c-0.254-0.479-0.642-0.846-1.163-1.1c-0.521-0.254-1.086-0.381-1.691-0.381c-0.762,0-1.371,0.163-1.828,0.486
			c-0.459,0.325-0.759,0.698-0.899,1.121c-0.085,0.226-0.127,0.473-0.127,0.74c0,0.451,0.155,0.867,0.466,1.248
			c0.31,0.38,0.824,0.691,1.543,0.93c0.832,0.268,1.378,0.494,1.639,0.677s0.391,0.402,0.391,0.655c0,0.226-0.105,0.405-0.316,0.539
			c-0.211,0.134-0.465,0.201-0.762,0.201c-0.281,0-0.557-0.053-0.824-0.159c-0.268-0.106-0.486-0.271-0.655-0.497
			c-0.113-0.155-0.254-0.232-0.423-0.232c-0.127,0-0.275,0.042-0.444,0.127l-0.698,0.275c-0.098,0.042-0.147,0.12-0.147,0.232
			c0,0.141,0.077,0.31,0.232,0.507C200.669,57.07,201.106,57.37,201.628,57.574z"/>
		<path fill="#FFFFFF" stroke="#FFFFFF" stroke-width="0.5" stroke-miterlimit="10" d="M219.494,56.591l-0.063,0.93
			c-0.014,0.071,0.007,0.131,0.063,0.18c0.056,0.049,0.126,0.074,0.212,0.074h1.184c0.084,0,0.154-0.024,0.211-0.074
			s0.085-0.109,0.085-0.18v-14.25c0-0.071-0.028-0.138-0.085-0.201s-0.127-0.095-0.211-0.095h-1.184
			c-0.071,0-0.135,0.032-0.191,0.095s-0.084,0.13-0.084,0.201l0.021,7.95c-0.269-0.38-0.643-0.708-1.121-0.983
			c-0.479-0.275-1.029-0.413-1.649-0.413c-0.705,0-1.353,0.18-1.944,0.54c-0.593,0.359-1.064,0.853-1.418,1.48
			c-0.352,0.627-0.527,1.321-0.527,2.083c0,0.719,0.176,1.378,0.527,1.977c0.354,0.599,0.825,1.075,1.418,1.427
			c0.592,0.353,1.239,0.536,1.944,0.55c0.536,0,1.054-0.12,1.554-0.36C218.735,57.282,219.155,56.972,219.494,56.591z
			 M215.35,55.586c-0.465-0.472-0.698-1.018-0.698-1.639c0-0.69,0.229-1.275,0.688-1.755c0.458-0.479,1.005-0.719,1.639-0.719
			c0.635,0,1.181,0.24,1.639,0.719c0.458,0.479,0.688,1.064,0.688,1.755c0,0.634-0.229,1.184-0.688,1.649s-1.004,0.698-1.639,0.698
			C216.357,56.295,215.815,56.059,215.35,55.586z"/>
		<path fill="#FFFFFF" stroke="#FFFFFF" stroke-width="0.5" stroke-miterlimit="10" d="M226.683,57.711
			c0.451,0.113,0.853,0.169,1.205,0.169c0.662,0,1.244-0.124,1.744-0.37s0.892-0.511,1.174-0.793
			c0.057-0.056,0.084-0.113,0.084-0.169c0-0.042-0.027-0.12-0.084-0.233c-0.24-0.38-0.424-0.641-0.55-0.782
			c-0.042-0.07-0.12-0.105-0.233-0.105c-0.084,0-0.147,0.021-0.189,0.063l-0.317,0.254c-0.239,0.198-0.519,0.349-0.835,0.455
			c-0.317,0.106-0.609,0.159-0.877,0.159c-0.578,0-1.062-0.18-1.449-0.539c-0.388-0.36-0.596-0.758-0.623-1.195h5.37
			c0.07,0,0.13-0.024,0.18-0.074c0.05-0.049,0.081-0.109,0.095-0.18c0.07-0.846-0.039-1.61-0.327-2.294
			c-0.29-0.684-0.723-1.226-1.301-1.628s-1.269-0.603-2.071-0.603c-0.311,0-0.6,0.028-0.867,0.084
			c-0.733,0.127-1.35,0.451-1.851,0.973s-0.835,1.156-1.004,1.903c-0.085,0.353-0.127,0.705-0.127,1.057
			c0,0.917,0.257,1.73,0.771,2.442S225.808,57.486,226.683,57.711z M226.333,51.854c0.389-0.366,0.863-0.549,1.428-0.549
			c0.521,0,0.969,0.166,1.343,0.497c0.373,0.332,0.616,0.779,0.729,1.343l-4.145,0.021
			C225.731,52.658,225.946,52.221,226.333,51.854z"/>
		<path fill="#FFFFFF" stroke="#FFFFFF" stroke-width="0.5" stroke-miterlimit="10" d="M125.723,64.449
			c0.804-0.494,1.671-0.74,2.601-0.74c0.889,0,1.741,0.225,2.559,0.676c0.085,0.043,0.162,0.049,0.232,0.021s0.19-0.131,0.359-0.307
			c0.17-0.176,0.381-0.412,0.635-0.709c0.042-0.07,0.053-0.148,0.031-0.232c-0.021-0.084-0.066-0.148-0.137-0.189
			c-1.198-0.705-2.446-1.059-3.743-1.059c-1.269,0-2.456,0.326-3.563,0.973c-1.106,0.65-1.994,1.545-2.664,2.686
			c-0.67,1.143-1.004,2.426-1.004,3.85s0.327,2.709,0.983,3.857c0.655,1.15,1.529,2.051,2.621,2.707
			c1.093,0.656,2.273,0.982,3.542,0.982c1.282,0,2.516-0.352,3.7-1.057c0.141-0.057,0.211-0.176,0.211-0.359
			c0-0.043-0.014-0.105-0.042-0.189c-0.268-0.311-0.479-0.551-0.634-0.719c-0.155-0.17-0.275-0.254-0.36-0.254
			c-0.042,0-0.099,0.02-0.169,0.063c-0.817,0.438-1.656,0.656-2.516,0.656c-0.931,0-1.801-0.248-2.611-0.74
			c-0.811-0.494-1.459-1.174-1.945-2.041s-0.729-1.836-0.729-2.906c0-1.086,0.239-2.063,0.719-2.93S124.92,64.941,125.723,64.449z"
			/>
		<path fill="#FFFFFF" stroke="#FFFFFF" stroke-width="0.5" stroke-miterlimit="10" d="M141.675,74.873
			c0.36-0.621,0.54-1.297,0.54-2.031c0-0.732-0.18-1.406-0.54-2.02c-0.359-0.611-0.846-1.098-1.458-1.457
			c-0.613-0.361-1.286-0.541-2.02-0.541s-1.405,0.18-2.019,0.541c-0.613,0.359-1.1,0.846-1.459,1.457
			c-0.359,0.613-0.539,1.287-0.539,2.02c0,0.734,0.18,1.41,0.539,2.031c0.359,0.619,0.846,1.109,1.459,1.469
			s1.285,0.539,2.019,0.539s1.406-0.18,2.02-0.539C140.829,75.982,141.315,75.492,141.675,74.873z M138.155,75.189
			c-0.621,0-1.149-0.229-1.586-0.688c-0.437-0.457-0.655-1.012-0.655-1.66c0-0.633,0.222-1.184,0.666-1.648s0.969-0.697,1.575-0.697
			c0.31,0,0.645,0.084,1.004,0.254c0.359,0.168,0.662,0.43,0.909,0.781c0.247,0.354,0.37,0.789,0.37,1.311
			c0,0.648-0.222,1.203-0.666,1.66C139.329,74.961,138.79,75.189,138.155,75.189z"/>
		<path fill="#FFFFFF" stroke="#FFFFFF" stroke-width="0.5" stroke-miterlimit="10" d="M152.036,74.873
			c0.359-0.621,0.539-1.297,0.539-2.031c0-0.732-0.18-1.406-0.539-2.02c-0.359-0.611-0.846-1.098-1.459-1.457
			c-0.613-0.361-1.287-0.541-2.02-0.541s-1.406,0.18-2.02,0.541c-0.613,0.359-1.1,0.846-1.459,1.457
			c-0.359,0.613-0.539,1.287-0.539,2.02c0,0.734,0.18,1.41,0.539,2.031c0.359,0.619,0.846,1.109,1.459,1.469s1.287,0.539,2.02,0.539
			s1.406-0.18,2.02-0.539S151.677,75.492,152.036,74.873z M148.516,75.189c-0.62,0-1.149-0.229-1.586-0.688
			c-0.437-0.457-0.655-1.012-0.655-1.66c0-0.633,0.222-1.184,0.666-1.648c0.443-0.465,0.969-0.697,1.575-0.697
			c0.31,0,0.645,0.084,1.004,0.254c0.36,0.168,0.663,0.43,0.909,0.781c0.246,0.354,0.37,0.789,0.37,1.311
			c0,0.648-0.222,1.203-0.666,1.66C149.688,74.961,149.149,75.189,148.516,75.189z"/>
		<path fill="#FFFFFF" stroke="#FFFFFF" stroke-width="0.5" stroke-miterlimit="10" d="M156.847,81.828l0.021-6.195
			c0.733,0.818,1.642,1.234,2.728,1.248c0.705,0,1.356-0.188,1.955-0.561c0.6-0.373,1.075-0.869,1.428-1.49s0.529-1.283,0.529-1.988
			c0-0.732-0.177-1.406-0.529-2.02c-0.353-0.611-0.832-1.098-1.438-1.457c-0.606-0.361-1.275-0.541-2.009-0.541
			c-0.507,0-1.012,0.125-1.512,0.371c-0.501,0.246-0.905,0.561-1.216,0.941l0.063-0.932c0-0.07-0.028-0.133-0.085-0.189
			s-0.127-0.084-0.211-0.084h-1.205c-0.07,0-0.135,0.027-0.19,0.084c-0.057,0.057-0.085,0.119-0.085,0.189l-0.021,12.623
			c0,0.086,0.029,0.156,0.085,0.211c0.056,0.057,0.12,0.086,0.19,0.086h1.205c0.085,0,0.155-0.029,0.211-0.086
			C156.817,81.984,156.847,81.914,156.847,81.828z M157.702,71.203c0.458-0.457,1.004-0.686,1.639-0.686s1.177,0.229,1.629,0.686
			c0.45,0.459,0.676,1.006,0.676,1.639c0,0.635-0.226,1.188-0.676,1.66c-0.452,0.473-0.994,0.709-1.629,0.709
			s-1.181-0.236-1.639-0.709s-0.688-1.025-0.688-1.66C157.015,72.209,157.244,71.662,157.702,71.203z"/>
		<path fill="#FFFFFF" stroke="#FFFFFF" stroke-width="0.5" stroke-miterlimit="10" d="M169.681,76.881
			c0.662,0,1.243-0.123,1.744-0.369c0.5-0.248,0.891-0.512,1.174-0.793c0.056-0.057,0.084-0.113,0.084-0.17
			c0-0.043-0.028-0.119-0.084-0.232c-0.24-0.381-0.424-0.641-0.551-0.783c-0.042-0.07-0.119-0.105-0.232-0.105
			c-0.084,0-0.148,0.021-0.189,0.064l-0.318,0.254c-0.239,0.197-0.518,0.348-0.834,0.453c-0.318,0.107-0.61,0.16-0.878,0.16
			c-0.578,0-1.062-0.18-1.448-0.539c-0.389-0.361-0.596-0.758-0.624-1.195h5.37c0.07,0,0.131-0.025,0.18-0.074
			c0.05-0.049,0.082-0.109,0.096-0.18c0.07-0.846-0.039-1.609-0.328-2.295c-0.289-0.684-0.723-1.225-1.301-1.627
			s-1.268-0.604-2.071-0.604c-0.311,0-0.6,0.029-0.867,0.086c-0.733,0.127-1.35,0.451-1.851,0.973
			c-0.5,0.521-0.834,1.154-1.004,1.902c-0.084,0.352-0.127,0.705-0.127,1.057c0,0.916,0.258,1.73,0.771,2.443
			c0.516,0.711,1.209,1.18,2.084,1.404C168.926,76.824,169.327,76.881,169.681,76.881z M168.126,70.855
			c0.388-0.367,0.863-0.551,1.428-0.551c0.521,0,0.969,0.166,1.342,0.498c0.373,0.33,0.617,0.779,0.73,1.342l-4.145,0.021
			C167.523,71.658,167.738,71.221,168.126,70.855z"/>
		<path fill="#FFFFFF" stroke="#FFFFFF" stroke-width="0.5" stroke-miterlimit="10" d="M179.724,70.58
			c0.127,0,0.225-0.063,0.295-0.189s0.191-0.451,0.359-0.973c0.029-0.086,0.043-0.156,0.043-0.213c0-0.141-0.084-0.232-0.254-0.273
			c-0.24-0.07-0.465-0.107-0.676-0.107c-0.41,0-0.808,0.107-1.195,0.318s-0.709,0.521-0.962,0.93l0.063-0.781
			c0.014-0.1-0.014-0.184-0.085-0.254c-0.07-0.07-0.155-0.105-0.253-0.105h-1.037c-0.098,0-0.18,0.035-0.242,0.105
			c-0.064,0.07-0.096,0.154-0.096,0.254v7.125c0,0.098,0.031,0.184,0.096,0.254c0.063,0.07,0.145,0.105,0.242,0.105h0.994
			c0.296,0,0.444-0.127,0.444-0.381v-4.652c0.042-0.254,0.19-0.521,0.444-0.803s0.592-0.422,1.014-0.422
			c0.17,0,0.328,0.01,0.477,0.031S179.652,70.58,179.724,70.58z"/>
		<path fill="#FFFFFF" stroke="#FFFFFF" stroke-width="0.5" stroke-miterlimit="10" d="M190.126,76.521V69.1
			c0-0.041-0.021-0.08-0.063-0.115s-0.077-0.053-0.106-0.053h-1.373c-0.057,0-0.104,0.018-0.139,0.053s-0.053,0.074-0.053,0.115
			l0.043,1.164c-0.254-0.424-0.627-0.77-1.121-1.037c-0.493-0.268-1.05-0.402-1.67-0.402c-0.705,0.016-1.35,0.199-1.936,0.551
			c-0.584,0.352-1.049,0.828-1.395,1.428c-0.346,0.598-0.518,1.258-0.518,1.977s0.172,1.393,0.518,2.02s0.811,1.127,1.395,1.5
			c0.586,0.375,1.23,0.568,1.936,0.582c0.521,0,1.025-0.119,1.512-0.359s0.898-0.549,1.236-0.93l-0.021,0.93
			c0,0.17,0.085,0.254,0.253,0.254h1.206C190.026,76.775,190.126,76.691,190.126,76.521z M187.97,73.994
			c-0.212,0.375-0.501,0.674-0.867,0.898c-0.367,0.227-0.769,0.34-1.205,0.34c-0.424,0-0.814-0.113-1.174-0.34
			c-0.359-0.225-0.645-0.523-0.856-0.898c-0.212-0.373-0.317-0.771-0.317-1.193c0-0.648,0.229-1.199,0.688-1.65
			s1.012-0.676,1.66-0.676c0.662,0,1.227,0.225,1.691,0.676s0.697,1.002,0.697,1.65C188.286,73.223,188.181,73.621,187.97,73.994z"
			/>
		<path fill="#FFFFFF" stroke="#FFFFFF" stroke-width="0.5" stroke-miterlimit="10" d="M198.773,74.873
			c-0.056-0.07-0.127-0.107-0.212-0.107c-0.041,0-0.092,0.016-0.147,0.043c-0.466,0.283-0.923,0.424-1.374,0.424
			c-0.621,0-1.146-0.23-1.576-0.688c-0.43-0.459-0.645-1.012-0.645-1.66c0-0.705,0.205-1.289,0.613-1.756
			c0.408-0.465,0.938-0.697,1.586-0.697c0.438,0,0.832,0.113,1.184,0.338c0.07,0.029,0.141,0.037,0.212,0.021
			c0.07-0.014,0.112-0.049,0.127-0.105l0.571-0.951c0.07-0.127,0.049-0.232-0.064-0.316c-0.676-0.395-1.367-0.594-2.071-0.594
			c-0.423,0-0.812,0.057-1.163,0.17c-0.705,0.197-1.311,0.582-1.818,1.152s-0.824,1.223-0.951,1.955
			c-0.043,0.297-0.064,0.559-0.064,0.783c0,0.311,0.057,0.691,0.17,1.143c0.197,0.719,0.578,1.334,1.142,1.85
			c0.563,0.514,1.212,0.828,1.945,0.941c0.239,0.041,0.466,0.063,0.677,0.063c0.93,0,1.762-0.289,2.494-0.867
			c0.043-0.041,0.064-0.098,0.064-0.168c0-0.057-0.015-0.1-0.043-0.127L198.773,74.873z"/>
		<path fill="#FFFFFF" stroke="#FFFFFF" stroke-width="0.5" stroke-miterlimit="10" d="M203.763,64.998
			c-0.239-0.24-0.528-0.359-0.866-0.359c-0.325,0-0.603,0.119-0.835,0.359s-0.35,0.521-0.35,0.846c0,0.338,0.117,0.623,0.35,0.855
			c0.232,0.234,0.51,0.35,0.835,0.35c0.338,0,0.627-0.115,0.866-0.35c0.24-0.232,0.359-0.518,0.359-0.855
			C204.122,65.52,204.003,65.238,203.763,64.998z"/>
		<path fill="#FFFFFF" stroke="#FFFFFF" stroke-width="0.5" stroke-miterlimit="10" d="M202.41,68.932
			c-0.113,0-0.208,0.035-0.286,0.105c-0.077,0.07-0.115,0.162-0.115,0.273v7.084c0,0.113,0.038,0.205,0.115,0.275
			c0.078,0.07,0.173,0.105,0.286,0.105h1.142c0.099,0,0.184-0.039,0.254-0.117c0.07-0.076,0.105-0.172,0.105-0.285v-7.063
			c0-0.111-0.039-0.203-0.116-0.273s-0.173-0.105-0.286-0.105H202.41z"/>
		<path fill="#FFFFFF" stroke="#FFFFFF" stroke-width="0.5" stroke-miterlimit="10" d="M212.548,76.342
			c0.613-0.359,1.1-0.85,1.459-1.469c0.359-0.621,0.539-1.297,0.539-2.031c0-0.732-0.18-1.406-0.539-2.02
			c-0.359-0.611-0.846-1.098-1.459-1.457c-0.613-0.361-1.286-0.541-2.02-0.541c-0.732,0-1.405,0.18-2.019,0.541
			c-0.613,0.359-1.1,0.846-1.459,1.457c-0.359,0.613-0.539,1.287-0.539,2.02c0,0.734,0.18,1.41,0.539,2.031
			c0.359,0.619,0.846,1.109,1.459,1.469s1.286,0.539,2.019,0.539C211.262,76.881,211.935,76.701,212.548,76.342z M208.901,74.502
			c-0.438-0.457-0.656-1.012-0.656-1.66c0-0.633,0.223-1.184,0.666-1.648c0.444-0.465,0.969-0.697,1.576-0.697
			c0.309,0,0.645,0.084,1.004,0.254c0.359,0.168,0.662,0.43,0.908,0.781c0.247,0.354,0.371,0.789,0.371,1.311
			c0,0.648-0.223,1.203-0.666,1.66c-0.444,0.459-0.983,0.688-1.617,0.688C209.866,75.189,209.337,74.961,208.901,74.502z"/>
		<path fill="#FFFFFF" stroke="#FFFFFF" stroke-width="0.5" stroke-miterlimit="10" d="M224.548,76.395l-0.021-4.545
			c-0.014-0.973-0.331-1.727-0.951-2.264c-0.621-0.535-1.354-0.803-2.199-0.803c-0.55,0-1.064,0.119-1.543,0.359
			c-0.48,0.24-0.846,0.578-1.1,1.014l0.063-0.908c0-0.098-0.027-0.176-0.084-0.232s-0.135-0.084-0.232-0.084h-1.057
			c-0.1,0-0.184,0.027-0.254,0.084c-0.071,0.057-0.106,0.135-0.106,0.232v7.168c0,0.098,0.035,0.184,0.106,0.254
			c0.07,0.07,0.154,0.105,0.254,0.105h1.014c0.324,0,0.486-0.135,0.486-0.402l-0.021-3.551c0-0.494,0.103-0.932,0.307-1.313
			s0.472-0.668,0.804-0.867c0.33-0.197,0.672-0.295,1.025-0.295c0.465,0,0.855,0.176,1.174,0.529
			c0.316,0.352,0.475,0.865,0.475,1.543v3.975c0,0.1,0.035,0.188,0.105,0.264c0.071,0.078,0.148,0.117,0.233,0.117h1.078
			c0.127,0,0.233-0.031,0.317-0.096C224.505,76.617,224.548,76.521,224.548,76.395z"/>
		<path fill="#FFFFFF" stroke="#FFFFFF" stroke-width="0.5" stroke-miterlimit="10" d="M134.762,81.111
			c-0.05-0.049-0.116-0.074-0.2-0.074h-1.058c-0.226,0.029-0.388,0.162-0.486,0.402L128.557,92.9l-4.462-11.461
			c-0.07-0.154-0.141-0.256-0.211-0.307c-0.071-0.049-0.162-0.08-0.275-0.096h-1.057c-0.085,0-0.152,0.025-0.201,0.074
			c-0.05,0.051-0.081,0.117-0.095,0.201l-1.227,14.209c-0.015,0.084,0.007,0.158,0.063,0.223c0.056,0.063,0.127,0.094,0.211,0.094
			h1.48c0.07,0,0.138-0.031,0.2-0.094c0.063-0.064,0.096-0.139,0.096-0.223l0.613-9.875l3.911,9.791
			c0.07,0.184,0.177,0.295,0.317,0.338s0.353,0.063,0.635,0.063c0.31,0,0.528-0.02,0.655-0.063s0.226-0.154,0.296-0.338l3.869-9.791
			l0.635,9.875c0.014,0.084,0.053,0.158,0.116,0.223c0.063,0.063,0.13,0.094,0.2,0.094h1.459c0.085,0,0.155-0.027,0.212-0.084
			c0.056-0.057,0.084-0.119,0.084-0.189v-0.043l-1.226-14.209C134.843,81.229,134.812,81.162,134.762,81.111z"/>
		<path fill="#FFFFFF" stroke="#FFFFFF" stroke-width="0.5" stroke-miterlimit="10" d="M145.831,87.932h-1.037
			c-0.324,0-0.486,0.133-0.486,0.4l0.043,3.553c0,0.521-0.1,0.973-0.297,1.354s-0.457,0.674-0.781,0.877
			c-0.324,0.205-0.663,0.307-1.016,0.307c-0.465,0-0.863-0.184-1.194-0.549c-0.331-0.367-0.497-0.902-0.497-1.607v-3.955
			c0-0.098-0.039-0.186-0.116-0.264c-0.077-0.076-0.158-0.115-0.243-0.115h-1.057c-0.127,0-0.232,0.031-0.317,0.094
			c-0.085,0.064-0.127,0.158-0.127,0.285l0.021,4.547c0,0.662,0.152,1.223,0.455,1.682c0.303,0.457,0.694,0.803,1.174,1.035
			c0.479,0.232,0.994,0.35,1.543,0.35c0.551,0,1.064-0.121,1.544-0.359c0.479-0.24,0.839-0.586,1.078-1.037l-0.063,0.932
			c-0.014,0.098,0.011,0.176,0.074,0.232s0.145,0.084,0.243,0.084h1.058c0.084,0,0.165-0.031,0.242-0.096
			c0.078-0.063,0.117-0.137,0.117-0.221v-7.168c0-0.1-0.039-0.184-0.117-0.254C145.996,87.967,145.915,87.932,145.831,87.932z"/>
		<path fill="#FFFFFF" stroke="#FFFFFF" stroke-width="0.5" stroke-miterlimit="10" d="M153.823,87.932h-1.713V84.02
			c0-0.113-0.031-0.201-0.095-0.264c-0.063-0.064-0.151-0.096-0.265-0.096h-1.162c-0.1,0-0.184,0.031-0.254,0.096
			c-0.071,0.063-0.106,0.15-0.106,0.264v3.912h-1.311c-0.085,0-0.159,0.031-0.222,0.094c-0.064,0.064-0.096,0.139-0.096,0.223v0.846
			c0,0.1,0.031,0.18,0.096,0.242c0.063,0.064,0.137,0.096,0.222,0.096h1.311v3.342c0,1.156,0.239,1.959,0.72,2.41
			c0.479,0.451,1.063,0.676,1.754,0.676c0.324,0,0.613-0.035,0.867-0.105c0.141-0.027,0.229-0.08,0.265-0.158
			c0.034-0.078,0.053-0.188,0.053-0.328c0.014-0.408-0.007-0.672-0.063-0.793c-0.057-0.119-0.17-0.166-0.338-0.137
			c-0.311,0-0.558-0.021-0.74-0.064c-0.184-0.041-0.353-0.193-0.508-0.453c-0.155-0.262-0.232-0.674-0.232-1.238v-3.15h1.818
			c0.084,0,0.158-0.035,0.223-0.105c0.063-0.07,0.094-0.148,0.094-0.232v-0.846c0-0.084-0.031-0.158-0.094-0.223
			C153.981,87.963,153.907,87.932,153.823,87.932z"/>
		<path fill="#FFFFFF" stroke="#FFFFFF" stroke-width="0.5" stroke-miterlimit="10" d="M163.782,87.932h-1.037
			c-0.324,0-0.486,0.133-0.486,0.4l0.043,3.553c0,0.521-0.1,0.973-0.297,1.354s-0.457,0.674-0.781,0.877
			c-0.324,0.205-0.663,0.307-1.016,0.307c-0.465,0-0.863-0.184-1.194-0.549c-0.331-0.367-0.497-0.902-0.497-1.607v-3.955
			c0-0.098-0.039-0.186-0.116-0.264c-0.077-0.076-0.158-0.115-0.243-0.115h-1.057c-0.127,0-0.232,0.031-0.317,0.094
			c-0.085,0.064-0.127,0.158-0.127,0.285l0.021,4.547c0,0.662,0.152,1.223,0.455,1.682c0.303,0.457,0.694,0.803,1.174,1.035
			c0.479,0.232,0.994,0.35,1.543,0.35c0.551,0,1.064-0.121,1.544-0.359c0.479-0.24,0.839-0.586,1.078-1.037l-0.063,0.932
			c-0.014,0.098,0.011,0.176,0.074,0.232s0.145,0.084,0.243,0.084h1.058c0.084,0,0.165-0.031,0.242-0.096
			c0.078-0.063,0.117-0.137,0.117-0.221v-7.168c0-0.1-0.039-0.184-0.117-0.254C163.947,87.967,163.866,87.932,163.782,87.932z"/>
		<path fill="#FFFFFF" stroke="#FFFFFF" stroke-width="0.5" stroke-miterlimit="10" d="M175.305,87.932h-1.374
			c-0.057,0-0.103,0.018-0.138,0.053s-0.053,0.074-0.053,0.115l0.042,1.164c-0.254-0.424-0.627-0.77-1.12-1.037
			s-1.05-0.402-1.671-0.402c-0.705,0.016-1.35,0.199-1.935,0.551s-1.05,0.828-1.396,1.428c-0.346,0.598-0.518,1.258-0.518,1.977
			s0.172,1.393,0.518,2.02s0.811,1.127,1.396,1.5c0.585,0.375,1.229,0.568,1.935,0.582c0.521,0,1.025-0.119,1.512-0.359
			s0.898-0.549,1.237-0.93l-0.021,0.93c0,0.17,0.084,0.254,0.253,0.254h1.206c0.196,0,0.295-0.084,0.295-0.254V88.1
			c0-0.041-0.021-0.08-0.063-0.115C175.368,87.949,175.333,87.932,175.305,87.932z M173.317,92.994
			c-0.211,0.375-0.5,0.674-0.867,0.898c-0.366,0.227-0.768,0.34-1.205,0.34c-0.423,0-0.814-0.113-1.174-0.34
			c-0.359-0.225-0.645-0.523-0.855-0.898c-0.212-0.373-0.317-0.771-0.317-1.193c0-0.648,0.229-1.199,0.687-1.65
			c0.459-0.451,1.012-0.676,1.66-0.676c0.662,0,1.227,0.225,1.691,0.676s0.697,1.002,0.697,1.65
			C173.634,92.223,173.528,92.621,173.317,92.994z"/>
		<path fill="#FFFFFF" stroke="#FFFFFF" stroke-width="0.5" stroke-miterlimit="10" d="M180.507,80.975h-1.143
			c-0.099,0-0.188,0.039-0.264,0.117c-0.078,0.076-0.117,0.164-0.117,0.264v14.039c0,0.1,0.039,0.188,0.117,0.264
			c0.076,0.078,0.165,0.117,0.264,0.117h1.184c0.085,0,0.162-0.043,0.232-0.127c0.071-0.084,0.106-0.176,0.106-0.275V81.355
			c0-0.1-0.039-0.188-0.116-0.264C180.692,81.014,180.604,80.975,180.507,80.975z"/>
		<path fill="#FFFFFF" stroke="#FFFFFF" stroke-width="0.5" stroke-miterlimit="10" d="M196.343,81.703
			c-0.719-0.443-1.516-0.666-2.39-0.666h-4.335c-0.084,0-0.158,0.033-0.222,0.096c-0.063,0.064-0.095,0.139-0.095,0.223v14.166
			c0,0.084,0.031,0.158,0.095,0.223c0.063,0.063,0.145,0.094,0.243,0.094h1.354c0.084,0,0.154-0.031,0.211-0.094
			c0.057-0.064,0.085-0.139,0.085-0.223v-4.693h2.558c0.86,0,1.66-0.223,2.4-0.666c0.74-0.445,1.324-1.037,1.755-1.777
			s0.646-1.539,0.646-2.398c0-0.902-0.205-1.73-0.613-2.484C197.625,82.748,197.062,82.148,196.343,81.703z M195.888,88.078
			c-0.557,0.592-1.258,0.889-2.104,0.889h-2.495v-6.174h2.495c0.846,0,1.547,0.293,2.104,0.877c0.557,0.586,0.836,1.314,0.836,2.189
			C196.724,86.746,196.444,87.486,195.888,88.078z"/>
		<path fill="#FFFFFF" stroke="#FFFFFF" stroke-width="0.5" stroke-miterlimit="10" d="M207.929,87.932h-1.373
			c-0.057,0-0.104,0.018-0.139,0.053s-0.053,0.074-0.053,0.115l0.043,1.164c-0.254-0.424-0.627-0.77-1.121-1.037
			c-0.493-0.268-1.05-0.402-1.67-0.402c-0.705,0.016-1.35,0.199-1.936,0.551c-0.584,0.352-1.049,0.828-1.395,1.428
			c-0.346,0.598-0.518,1.258-0.518,1.977s0.172,1.393,0.518,2.02s0.811,1.127,1.395,1.5c0.586,0.375,1.23,0.568,1.936,0.582
			c0.521,0,1.025-0.119,1.512-0.359s0.898-0.549,1.236-0.93l-0.021,0.93c0,0.17,0.085,0.254,0.253,0.254h1.206
			c0.196,0,0.296-0.084,0.296-0.254V88.1c0-0.041-0.021-0.08-0.063-0.115S207.958,87.932,207.929,87.932z M205.942,92.994
			c-0.212,0.375-0.501,0.674-0.867,0.898c-0.367,0.227-0.769,0.34-1.205,0.34c-0.424,0-0.814-0.113-1.174-0.34
			c-0.359-0.225-0.645-0.523-0.856-0.898c-0.212-0.373-0.317-0.771-0.317-1.193c0-0.648,0.229-1.199,0.688-1.65
			s1.012-0.676,1.66-0.676c0.662,0,1.227,0.225,1.691,0.676s0.697,1.002,0.697,1.65C206.259,92.223,206.153,92.621,205.942,92.994z"
			/>
		<path fill="#FFFFFF" stroke="#FFFFFF" stroke-width="0.5" stroke-miterlimit="10" d="M215.456,87.932h-1.713V84.02
			c0-0.113-0.031-0.201-0.094-0.264c-0.064-0.064-0.152-0.096-0.266-0.096h-1.162c-0.1,0-0.184,0.031-0.254,0.096
			c-0.07,0.063-0.105,0.15-0.105,0.264v3.912h-1.311c-0.086,0-0.159,0.031-0.223,0.094c-0.063,0.064-0.096,0.139-0.096,0.223v0.846
			c0,0.1,0.032,0.18,0.096,0.242c0.063,0.064,0.137,0.096,0.223,0.096h1.311v3.342c0,1.156,0.239,1.959,0.719,2.41
			c0.479,0.451,1.064,0.676,1.755,0.676c0.324,0,0.613-0.035,0.866-0.105c0.141-0.027,0.229-0.08,0.266-0.158
			c0.034-0.078,0.053-0.188,0.053-0.328c0.014-0.408-0.008-0.672-0.064-0.793c-0.057-0.119-0.169-0.166-0.338-0.137
			c-0.311,0-0.557-0.021-0.74-0.064c-0.184-0.041-0.352-0.193-0.508-0.453c-0.154-0.262-0.232-0.674-0.232-1.238v-3.15h1.818
			c0.085,0,0.159-0.035,0.223-0.105c0.063-0.07,0.095-0.148,0.095-0.232v-0.846c0-0.084-0.032-0.158-0.095-0.223
			C215.615,87.963,215.541,87.932,215.456,87.932z"/>
		<path fill="#FFFFFF" stroke="#FFFFFF" stroke-width="0.5" stroke-miterlimit="10" d="M222.646,87.932
			c-0.24-0.07-0.465-0.107-0.677-0.107c-0.409,0-0.808,0.107-1.194,0.318c-0.389,0.211-0.709,0.521-0.963,0.93l0.064-0.781
			c0.014-0.1-0.015-0.184-0.086-0.254c-0.07-0.07-0.154-0.105-0.253-0.105h-1.036c-0.099,0-0.18,0.035-0.243,0.105
			s-0.095,0.154-0.095,0.254v7.125c0,0.098,0.031,0.184,0.095,0.254s0.145,0.105,0.243,0.105h0.994c0.295,0,0.443-0.127,0.443-0.381
			v-4.652c0.043-0.254,0.19-0.521,0.444-0.803s0.592-0.422,1.015-0.422c0.17,0,0.328,0.01,0.477,0.031
			c0.147,0.021,0.256,0.031,0.327,0.031c0.127,0,0.226-0.063,0.296-0.189s0.19-0.451,0.359-0.973
			c0.028-0.086,0.043-0.156,0.043-0.213C222.899,88.064,222.814,87.973,222.646,87.932z"/>
		<path fill="#FFFFFF" stroke="#FFFFFF" stroke-width="0.5" stroke-miterlimit="10" d="M230.246,88.365
			c-0.613-0.361-1.286-0.541-2.02-0.541s-1.405,0.18-2.019,0.541c-0.613,0.359-1.1,0.846-1.459,1.457
			c-0.359,0.613-0.539,1.287-0.539,2.02c0,0.734,0.18,1.41,0.539,2.031c0.359,0.619,0.846,1.109,1.459,1.469
			s1.285,0.539,2.019,0.539s1.406-0.18,2.02-0.539c0.612-0.359,1.099-0.85,1.458-1.469c0.36-0.621,0.54-1.297,0.54-2.031
			c0-0.732-0.18-1.406-0.54-2.02C231.345,89.211,230.858,88.725,230.246,88.365z M229.802,93.502
			c-0.443,0.459-0.982,0.688-1.617,0.688c-0.621,0-1.149-0.229-1.586-0.688c-0.438-0.457-0.655-1.012-0.655-1.66
			c0-0.633,0.222-1.184,0.666-1.648s0.969-0.697,1.575-0.697c0.31,0,0.645,0.084,1.004,0.254c0.359,0.168,0.662,0.43,0.909,0.781
			c0.247,0.354,0.37,0.789,0.37,1.311C230.468,92.49,230.246,93.045,229.802,93.502z"/>
		<path fill="#FFFFFF" stroke="#FFFFFF" stroke-width="0.5" stroke-miterlimit="10" d="M241.272,88.586
			c-0.621-0.535-1.354-0.803-2.199-0.803c-0.549,0-1.064,0.119-1.543,0.359s-0.846,0.578-1.1,1.014l0.064-0.908
			c0-0.098-0.029-0.176-0.086-0.232s-0.133-0.084-0.232-0.084h-1.057c-0.1,0-0.184,0.027-0.254,0.084s-0.105,0.135-0.105,0.232
			v7.168c0,0.098,0.035,0.184,0.105,0.254s0.154,0.105,0.254,0.105h1.016c0.322,0,0.486-0.135,0.486-0.402l-0.021-3.551
			c0-0.494,0.102-0.932,0.307-1.313c0.203-0.381,0.471-0.668,0.803-0.867c0.332-0.197,0.674-0.295,1.025-0.295
			c0.465,0,0.857,0.176,1.174,0.529c0.316,0.352,0.475,0.865,0.475,1.543v3.975c0,0.1,0.035,0.188,0.107,0.264
			c0.07,0.078,0.146,0.117,0.232,0.117h1.078c0.127,0,0.232-0.031,0.316-0.096c0.084-0.063,0.127-0.158,0.127-0.285l-0.021-4.545
			C242.21,89.877,241.894,89.123,241.272,88.586z"/>
		<path fill="#FFFFFF" stroke="#FFFFFF" stroke-width="0.5" stroke-miterlimit="10" d="M252.987,87.932h-1.375
			c-0.057,0-0.104,0.018-0.137,0.053c-0.037,0.035-0.055,0.074-0.055,0.115l0.043,1.164c-0.254-0.424-0.627-0.77-1.121-1.037
			c-0.492-0.268-1.049-0.402-1.67-0.402c-0.705,0.016-1.35,0.199-1.934,0.551c-0.586,0.352-1.051,0.828-1.396,1.428
			c-0.346,0.598-0.518,1.258-0.518,1.977s0.172,1.393,0.518,2.02s0.811,1.127,1.396,1.5c0.584,0.375,1.229,0.568,1.934,0.582
			c0.521,0,1.025-0.119,1.512-0.359s0.898-0.549,1.236-0.93l-0.02,0.93c0,0.17,0.084,0.254,0.254,0.254h1.205
			c0.197,0,0.295-0.084,0.295-0.254V88.1c0-0.041-0.021-0.08-0.063-0.115C253.05,87.949,253.015,87.932,252.987,87.932z
			 M250.999,92.994c-0.211,0.375-0.5,0.674-0.867,0.898c-0.367,0.227-0.768,0.34-1.205,0.34c-0.422,0-0.814-0.113-1.174-0.34
			c-0.359-0.225-0.645-0.523-0.855-0.898c-0.211-0.373-0.318-0.771-0.318-1.193c0-0.648,0.23-1.199,0.688-1.65
			c0.459-0.451,1.012-0.676,1.66-0.676c0.662,0,1.227,0.225,1.691,0.676s0.697,1.002,0.697,1.65
			C251.315,92.223,251.21,92.621,250.999,92.994z"/>
		<path fill="#FFFFFF" stroke="#FFFFFF" stroke-width="0.5" stroke-miterlimit="10" d="M258.452,81.092
			c-0.078-0.078-0.166-0.117-0.264-0.117h-1.143c-0.1,0-0.188,0.039-0.264,0.117c-0.078,0.076-0.117,0.164-0.117,0.264v14.039
			c0,0.1,0.039,0.188,0.117,0.264c0.076,0.078,0.164,0.117,0.264,0.117h1.184c0.086,0,0.162-0.043,0.232-0.127
			s0.107-0.176,0.107-0.275V81.355C258.569,81.256,258.53,81.168,258.452,81.092z"/>
	</g>
	<polygon fill="#FFFFFF" points="98.218,70.314 96.798,68.334 96.798,70.314 	"/>
	<path fill="#FFFFFF" d="M105.431,90.93l-0.044,0.012c2.207-3.391,3.774-7.146,3.405-10.711l-0.084-0.82l-6.482-0.576l-0.028-0.037
		l-5.399-16.563V9.8l-18.195,4.001C68.209,4.735,53.717,3.146,49.965,2.883V2.8L48.74,2.827L47.516,2.8v0.083
		C41.493,3.304,7.798,7.137,7.798,39.833c0,9.47,2.58,16.495,6.361,21.734c-1.412-0.49-3.662-1.155-5.504-1.155
		c-1.624,0-2.726,0.51-3.272,1.516c-0.751,1.381-0.275,3.393,1.5,6.299c-1.539-0.248-2.79,0.059-3.756,0.904
		c-0.143,0.129-1.387,1.328-1.119,3.586c0.417,3.516,4.228,7.43,11.338,11.658c-1.014,0.305-1.971,0.846-2.421,1.801
		c-0.607,1.287-0.125,2.898,1.435,4.793l0.095,0.115l23.203,15.463l8.677,4.672c0.136,0.072,3.387,1.744,8.316,1.744
		c2.863,0,5.712-0.566,8.47-1.682c0.637-0.174,7.234-1.926,14.727-1.926c7.757,0,13.682,1.811,17.611,5.385l1.674,1.52v-14.119
		c0.769-0.637,2.566-2.178,4.614-4.281h7.305L105.431,90.93z M96.798,70.4v-0.086v-1.627l3.245,9.953l-6.795-0.605l-7.388-7.387
		c-0.026-0.027-0.16-0.16-0.352-0.334h9.328L96.798,70.4z M93.798,13.532v50.613l-6.743-9.413c1.64-4.14,2.628-9.051,2.628-14.899
		c0-10.581-3.539-18.125-8.516-23.523L93.798,13.532z M86.624,37.833h-6.912c0.501-0.89,0.801-1.908,0.801-3
		c0-3.4-2.768-6.167-6.168-6.167c-0.922,0-1.795,0.209-2.582,0.575c-0.613-2.58-1.391-5.011-2.34-7.289
		c4.089-1.74,7.102-3.691,8.563-4.724C83.341,22.51,86.231,29.403,86.624,37.833z M86.62,41.833
		c-0.159,3.731-0.759,7.024-1.689,9.934l-7.116-9.934H86.62z M76.565,37.046c-0.543,0.475-1.085,0.719-1.591,0.822
		c-0.404,0.083-0.784,0.074-1.124,0.019c-0.669-0.109-1.177-0.397-1.384-0.532c0.053,0.039,0.106,0.078,0.162,0.114
		c-0.085-0.055-0.169-0.11-0.247-0.172c-0.004-0.003-0.008-0.007-0.012-0.01c-0.042-0.033-0.079-0.07-0.119-0.105
		c-0.068-0.06-0.136-0.121-0.198-0.187c-0.04-0.042-0.076-0.085-0.113-0.128c-0.057-0.066-0.112-0.134-0.163-0.205
		c-0.034-0.047-0.066-0.095-0.099-0.145c-0.047-0.073-0.091-0.149-0.132-0.227c-0.027-0.051-0.054-0.103-0.078-0.156
		c-0.038-0.082-0.07-0.166-0.101-0.251c-0.019-0.053-0.039-0.105-0.056-0.16c-0.028-0.095-0.049-0.193-0.068-0.292
		c-0.009-0.048-0.022-0.094-0.029-0.143c-0.021-0.149-0.035-0.301-0.035-0.456c0-1.009,0.483-1.899,1.221-2.479
		c0.539-0.424,1.209-0.687,1.945-0.687c1.746,0,3.168,1.42,3.168,3.167c0,0.167-0.015,0.331-0.04,0.491
		c-0.008,0.052-0.023,0.101-0.034,0.151c-0.022,0.107-0.046,0.213-0.079,0.316c-0.019,0.057-0.042,0.111-0.063,0.167
		c-0.035,0.092-0.072,0.183-0.116,0.27c-0.027,0.056-0.059,0.108-0.09,0.162c-0.048,0.083-0.098,0.163-0.152,0.241
		c-0.036,0.05-0.072,0.099-0.11,0.147c-0.061,0.075-0.123,0.146-0.189,0.216c-0.021,0.023-0.04,0.05-0.063,0.072
		c-0.021,0.02-0.043,0.037-0.064,0.056c0.021-0.02,0.041-0.041,0.062-0.062L76.565,37.046z M75.746,37.654
		c-0.013,0.006-0.024,0.015-0.037,0.021c-0.128,0.061-0.26,0.113-0.396,0.157C75.463,37.784,75.606,37.723,75.746,37.654z
		 M73.122,37.736c-0.133-0.056-0.262-0.121-0.386-0.194c-0.004-0.002-0.007-0.005-0.012-0.008
		C72.853,37.61,72.984,37.678,73.122,37.736z M67.968,10.443c2.551,1.183,4.829,2.551,6.861,4.08
		c-0.078,0.052-0.172,0.11-0.256,0.165l-7.944,1.747c-0.187-0.307-0.37-0.616-0.565-0.914c-2.489-3.803-5.277-6.478-7.857-8.369
		C61.177,7.836,64.575,8.87,67.968,10.443z M50.516,6.359c2.825,1.047,8.478,3.873,13.003,10.759l-13.003,2.86V6.359z
		 M50.516,25.314c0.908,0.069,1.81,0.114,2.693,0.114c4.978,0,9.538-1.027,13.397-2.383c1.074,2.602,1.916,5.441,2.531,8.499
		c-0.604,0.953-0.959,2.079-0.959,3.289c0,1.091,0.292,2.111,0.791,3H50.516V25.314z M50.516,41.833h18.927l-10.416,9.324
		l-8.511-7.554V41.833z M50.516,47.613l8.521,7.562l11.329-10.143l3.575-3.2l0.111-0.101l0.072,0.101l9.518,13.285l1.973,2.755
		l6.683,9.329l-10.201-0.445l-1.165-2.264l-1.436-2.787l-6.203-12.053l-0.635-1.233l-2.51,2.684L58.018,64.08l-7.502-8.827
		l-3.551-4.177l-3.595-4.23l-7.63,17.891l-0.329,0.771l-0.771,1.807h-0.098h-8.56l-1.604-0.07l2.214-2.906l1.965-2.578l0.229-0.301
		l14.952-19.626l0.105-0.139l0.156,0.139h2.964v2.63L50.516,47.613z M78.634,66.586c-1.005-0.322-2.107-0.607-3.334-0.824
		c-1.201-0.213-2.518-0.352-3.936-0.406c-0.412-0.016-0.817-0.037-1.248-0.037c-0.333,0-0.67,0.006-0.984,0.016H68.31h-7.357
		l8.768-9.381l2.219-2.374l0.895,1.736l4.477,8.698L78.634,66.586z M55.146,65.334h-4.631h-1.087l-10.486-0.457l5.284-12.392
		l2.738,3.222l3.551,4.177L55.146,65.334z M24.097,41.833c-0.152,4.341,0.07,9.008,0.619,13.953h-8.251V41.833H24.097z
		 M16.465,37.833v-7.294l9.451-2.079c-0.743,2.929-1.271,6.049-1.568,9.373H16.465z M24.838,56.786
		c0.104,0.87,0.193,1.727,0.317,2.614c-0.831-0.081-1.816-0.149-2.824-0.149c-2.599,0-4.318,0.454-5.235,1.366
		c-0.218-0.288-0.42-0.602-0.631-0.901v-2.93H24.838z M18.365,62.221c0.003-0.008,0.013-0.018,0.017-0.025
		c0.21-0.441,1.354-0.943,3.949-0.943c0.972,0,1.928,0.07,2.729,0.15l-2.115,2.777l-1.694,2.223l-0.141-0.105
		C18.088,63.455,18.293,62.404,18.365,62.221z M40.562,25.239c1.207,0.122,2.444,0.189,3.71,0.189c0.884,0,1.785-0.045,2.693-0.114
		v5.468c-1.131-1.294-2.789-2.117-4.639-2.117c-3.4,0-6.167,2.766-6.167,6.167c0,1.09,0.288,2.112,0.787,3h-9.521
		c0.34-3.628,0.957-7,1.84-10.109L40.562,25.239z M30.343,24.415c0.172-0.462,0.347-0.921,0.531-1.37
		c0.748,0.263,1.529,0.508,2.328,0.741L30.343,24.415z M45.493,34.832c0,1.218-0.699,2.266-1.711,2.795l-0.767,0.205l-0.08,0.105
		c-0.197,0.039-0.4,0.062-0.609,0.062c-0.339,0-0.659-0.067-0.966-0.167c-1.272-0.411-2.201-1.593-2.201-3
		c0-1.746,1.421-3.167,3.167-3.167S45.493,33.086,45.493,34.832z M39.969,41.833l-10.63,13.953h-1.556
		c-0.549-4.94-0.782-9.623-0.618-13.953H39.969z M28.577,56.786l-0.601,0.788c-0.033-0.267-0.054-0.522-0.085-0.788H28.577z
		 M46.965,20.759l-2.938,0.646c-4.182-0.041-8.073-0.886-11.419-2.029c0.401-0.73,0.818-1.442,1.263-2.125
		c4.541-6.986,10.251-9.838,13.095-10.892V20.759z M39.394,7.063c-2.613,1.896-5.449,4.597-7.977,8.458
		c-0.583,0.892-1.123,1.824-1.638,2.778c-3.194-1.345-5.688-2.828-7.187-3.813C28.016,10.354,34.34,8.189,39.394,7.063z
		 M13.465,54.233c-1.444-3.48-2.399-7.565-2.604-12.4h2.604V54.233z M13.465,28.126v9.706H10.86
		c0.439-9.329,3.918-15.94,8.608-20.622c1.452,1.027,4.475,2.991,8.589,4.742c-0.435,1.042-0.828,2.122-1.192,3.228L13.465,28.126z
		 M93.509,100.883l-0.377,0.301v10.727c-4.225-3.023-10.026-4.555-17.285-4.555c-8.119,0-15.031,1.934-15.322,2.016l-0.104,0.037
		c-2.534,1.031-5.148,1.555-7.771,1.555c-4.41,0-7.361-1.502-7.378-1.51l-8.586-4.619L13.812,89.586
		c-0.916-1.141-1.309-2.068-1.078-2.557c0.287-0.609,1.723-1.033,3.49-1.033l4.468,0.17l-3.747-2.045
		c-10.661-5.814-12.684-9.74-12.94-11.563c-0.182-1.289,0.453-1.932,0.453-1.934c1.199-1.051,3.72-0.354,7.079,1.846l7.955,6.631
		l1.354-1.469c-0.16-0.162-3.958-4.023-8.116-6.77l-3.84-3.201c-2.18-3.406-1.893-4.518-1.75-4.777
		c0.223-0.412,1.045-0.473,1.516-0.473c2.203,0,5.342,1.209,5.977,1.463l5.184,3.949l0.001,0.002
		c0.065,0.061,0.14,0.125,0.207,0.188l-1.754,2.301h4.49c1.63,1.277,3.568,2.674,5.814,4.182l0.895-1.25l0.269-0.377l-3.354-2.555
		h10.239l0.652-1.529c0.922,0.486,1.919,1.006,3,1.563l0.005,0.002c1.084,1.012,15.234,6.17,15.234,6.17s-13.896-6.928-14.646-8.186
		v-0.51c0,0,31.748-2.102,41.106,2.49h0.102c1.551,0.918,2.32,1.699,2.348,1.727l7.923,7.922l14.499,1.289
		C106.903,90.113,93.647,100.773,93.509,100.883z M101.602,95.859c0.77-0.871,1.54-1.801,2.278-2.777l0.649,2.777H101.602z"/>
</g>
</svg>
